<mxfile host="app.diagrams.net" modified="2023-10-04T21:56:09.535Z" agent="Mozilla/5.0 (Macintosh; Intel Mac OS X 10.15; rv:109.0) Gecko/20100101 Firefox/118.0" version="22.0.2" etag="fL20tCyzxIKkaNNMhmIx" type="github">
  <diagram name="Page-1" id="QlivAXW4Mql4JrRy9Ejf">
    <mxGraphModel>
      <root>
        <mxCell id="0" />
        <mxCell id="1" parent="0" />
      </root>
    </mxGraphModel>
  </diagram>
</mxfile>
